#define jfet_width 48
#define jfet_height 64
static unsigned char jfet_bits[] = {
   0x00, 0x00, 0x00, 0x00, 0x00, 0x00, 0x00, 0x00, 0x00, 0x00, 0x00, 0x00,
   0x00, 0x00, 0x00, 0x00, 0x00, 0x00, 0x00, 0x00, 0x00, 0x00, 0x04, 0x07,
   0x00, 0x00, 0x00, 0x00, 0x04, 0x09, 0x00, 0x00, 0x00, 0x00, 0x04, 0x09,
   0x00, 0x00, 0x00, 0x00, 0x04, 0x09, 0x00, 0x00, 0x00, 0xe0, 0x07, 0x07,
   0x00, 0x00, 0x18, 0x18, 0x1c, 0x00, 0x00, 0x00, 0x04, 0x04, 0x24, 0x00,
   0x00, 0x00, 0x34, 0x42, 0x44, 0x00, 0x00, 0x00, 0x24, 0xc2, 0x47, 0x00,
   0x00, 0x00, 0x18, 0x41, 0x80, 0x00, 0x00, 0x00, 0x00, 0x49, 0x80, 0x00,
   0x00, 0x00, 0x00, 0x59, 0x80, 0x00, 0x00, 0x00, 0xfe, 0x7f, 0x80, 0x00,
   0x00, 0x00, 0x00, 0x59, 0x80, 0x00, 0x00, 0x00, 0x00, 0x49, 0x80, 0x00,
   0x00, 0x00, 0x00, 0xc2, 0x47, 0x00, 0x00, 0x00, 0x00, 0x42, 0x44, 0x00,
   0x00, 0x00, 0x00, 0x04, 0x24, 0x00, 0x00, 0x00, 0x00, 0x18, 0x1c, 0x0e,
   0x00, 0x00, 0x00, 0xe0, 0x07, 0x01, 0x00, 0x00, 0x00, 0x00, 0x04, 0x0e,
   0x00, 0x00, 0x00, 0x00, 0x04, 0x10, 0x00, 0x00, 0x00, 0x00, 0x04, 0x0e,
   0x00, 0x00, 0x00, 0x00, 0x04, 0x00, 0x00, 0x00, 0x00, 0x00, 0x00, 0x00,
   0x00, 0x00, 0x00, 0x00, 0x00, 0x00, 0x00, 0x00, 0x00, 0x00, 0x00, 0x00,
   0x00, 0x00, 0x00, 0x00, 0x00, 0x00, 0x00, 0x00, 0x00, 0x00, 0x00, 0x00,
   0x00, 0xf8, 0x03, 0x00, 0x00, 0x00, 0x00, 0xf8, 0x03, 0x00, 0x00, 0x00,
   0x00, 0xf8, 0x03, 0x00, 0x00, 0x00, 0x00, 0xf8, 0x03, 0x00, 0x00, 0x00,
   0x00, 0xf8, 0x03, 0x00, 0x00, 0x00, 0x00, 0xf8, 0x03, 0x00, 0x00, 0x00,
   0x00, 0xf8, 0x03, 0x00, 0x00, 0x00, 0x00, 0x50, 0x01, 0x00, 0x00, 0x00,
   0x00, 0x48, 0x02, 0x00, 0x00, 0x00, 0x00, 0x44, 0x04, 0x00, 0x00, 0x00,
   0x00, 0x44, 0x04, 0x00, 0x00, 0x00, 0x00, 0x44, 0x04, 0x00, 0x00, 0x00,
   0x00, 0x44, 0x04, 0x00, 0x00, 0x00, 0x00, 0x44, 0x04, 0x00, 0x00, 0x00,
   0x00, 0x44, 0x04, 0x00, 0x00, 0x00, 0x00, 0x44, 0x04, 0x00, 0x00, 0x00,
   0x00, 0x44, 0x04, 0x00, 0x00, 0x00, 0x00, 0x44, 0x04, 0x00, 0x00, 0x00,
   0x00, 0x44, 0x04, 0x00, 0x00, 0x00, 0x00, 0x44, 0x04, 0x00, 0x00, 0x00,
   0x00, 0x00, 0x00, 0x00, 0x00, 0x00, 0x00, 0x00, 0x00, 0x00, 0x00, 0x00,
   0x00, 0x44, 0x06, 0x00, 0x00, 0x00, 0x00, 0xa6, 0x08, 0x00, 0x00, 0x00,
   0x00, 0x84, 0x04, 0x00, 0x00, 0x00, 0x00, 0x44, 0x08, 0x00, 0x00, 0x00,
   0x00, 0xee, 0x06, 0x00, 0x00, 0x00, 0x00, 0x00, 0x00, 0x00, 0x00, 0x00,
   0x00, 0x00, 0x00, 0x00, 0x00, 0x00, 0x00, 0x00, 0x00, 0x00, 0x00, 0x00,
   0x00, 0x00, 0x00, 0x00, 0x00, 0x00, 0x00, 0x00, 0x00, 0x00, 0x00, 0x00 };
