#define thyr_width 48
#define thyr_height 64
static unsigned char thyr_bits[] = {
   0x00, 0x00, 0x00, 0x00, 0x00, 0x00, 0x00, 0x00, 0x00, 0x00, 0x00, 0x00,
   0x00, 0x00, 0x00, 0x00, 0x01, 0x02, 0x00, 0x00, 0x00, 0x00, 0x01, 0x05,
   0x00, 0x00, 0x00, 0x00, 0x01, 0x07, 0x00, 0x00, 0x00, 0xe0, 0x07, 0x05,
   0x00, 0x00, 0x00, 0x18, 0x19, 0x05, 0x00, 0x00, 0x00, 0x04, 0x21, 0x00,
   0x00, 0x00, 0x00, 0x02, 0x41, 0x00, 0x00, 0x00, 0x00, 0xe2, 0x4f, 0x00,
   0x00, 0x00, 0x00, 0x41, 0x84, 0x00, 0x00, 0x00, 0x18, 0x81, 0x82, 0x00,
   0x00, 0x00, 0x04, 0x01, 0x81, 0x00, 0x00, 0x00, 0x34, 0xf1, 0x9f, 0x00,
   0x00, 0x00, 0x24, 0x41, 0x81, 0x00, 0x00, 0x00, 0x18, 0x21, 0x81, 0x00,
   0x00, 0x00, 0x00, 0x12, 0x41, 0x00, 0x00, 0x00, 0x00, 0x0a, 0x41, 0x00,
   0x00, 0x00, 0x00, 0x04, 0x21, 0x00, 0x00, 0x00, 0xfe, 0x1b, 0x19, 0x01,
   0x00, 0x00, 0x00, 0xe0, 0x87, 0x02, 0x00, 0x00, 0x00, 0x00, 0x81, 0x00,
   0x00, 0x00, 0x00, 0x00, 0x81, 0x00, 0x00, 0x00, 0x00, 0x00, 0x81, 0x02,
   0xc0, 0xff, 0x01, 0x00, 0x00, 0x01, 0x40, 0x00, 0x01, 0x00, 0x00, 0x00,
   0x40, 0x00, 0x01, 0x00, 0x00, 0x00, 0x40, 0x1c, 0x01, 0x00, 0x00, 0x00,
   0x40, 0x3e, 0x01, 0x00, 0x00, 0x00, 0x40, 0x3e, 0x01, 0x00, 0x00, 0x00,
   0x40, 0x1c, 0x01, 0x00, 0x00, 0x00, 0x40, 0x00, 0x01, 0x00, 0x00, 0x00,
   0x40, 0x00, 0x01, 0x00, 0x00, 0x00, 0xc0, 0xff, 0x01, 0x00, 0x00, 0x00,
   0xc0, 0xff, 0x01, 0x00, 0x00, 0x00, 0xc0, 0xff, 0x01, 0x00, 0x00, 0x00,
   0xc0, 0xff, 0x01, 0x00, 0x00, 0x00, 0xc0, 0xff, 0x01, 0x00, 0x00, 0x00,
   0xc0, 0xff, 0x01, 0x00, 0x00, 0x00, 0xc0, 0xff, 0x01, 0x00, 0x00, 0x00,
   0xc0, 0xff, 0x01, 0x00, 0x00, 0x00, 0xc0, 0xff, 0x01, 0x00, 0x00, 0x00,
   0x80, 0x88, 0x00, 0x00, 0x00, 0x00, 0x80, 0x88, 0x00, 0x00, 0x00, 0x00,
   0x80, 0x88, 0x00, 0x00, 0x00, 0x00, 0x80, 0x88, 0x00, 0x00, 0x00, 0x00,
   0x80, 0x88, 0x00, 0x00, 0x00, 0x00, 0x80, 0x88, 0x00, 0x00, 0x00, 0x00,
   0x80, 0x88, 0x00, 0x00, 0x00, 0x00, 0x80, 0x88, 0x00, 0x00, 0x00, 0x00,
   0x80, 0x88, 0x00, 0x00, 0x00, 0x00, 0x80, 0x88, 0x00, 0x00, 0x00, 0x00,
   0x80, 0x88, 0x00, 0x00, 0x00, 0x00, 0x20, 0x00, 0x06, 0x00, 0x00, 0x00,
   0x50, 0x08, 0x01, 0x00, 0x00, 0x00, 0x10, 0x14, 0x0d, 0x00, 0x00, 0x00,
   0x50, 0x1c, 0x09, 0x00, 0x00, 0x00, 0x20, 0x14, 0x06, 0x00, 0x00, 0x00,
   0x00, 0x14, 0x00, 0x00, 0x00, 0x00, 0x00, 0x00, 0x00, 0x00, 0x00, 0x00,
   0x00, 0x00, 0x00, 0x00, 0x00, 0x00, 0x00, 0x00, 0x00, 0x00, 0x00, 0x00,
   0x00, 0x00, 0x00, 0x00, 0x00, 0x00, 0x00, 0x00, 0x00, 0x00, 0x00, 0x00 };
