#define triac_width 48
#define triac_height 64
static unsigned char triac_bits[] = {
   0x00, 0x00, 0x00, 0x00, 0x00, 0x00, 0x00, 0x00, 0x00, 0x00, 0x00, 0x00,
   0x00, 0x00, 0x00, 0x80, 0x00, 0x22, 0x00, 0x00, 0x00, 0x80, 0x00, 0x35,
   0x00, 0x00, 0x00, 0x80, 0x00, 0x27, 0x00, 0x00, 0x00, 0xe0, 0x07, 0x25,
   0x00, 0x00, 0x00, 0x98, 0x18, 0x75, 0x00, 0x00, 0x00, 0x84, 0x20, 0x00,
   0x00, 0x00, 0x00, 0x82, 0x40, 0x00, 0x00, 0x00, 0x00, 0x82, 0x40, 0x00,
   0x00, 0x00, 0x00, 0xf9, 0x9f, 0x00, 0x00, 0x00, 0x18, 0x89, 0x84, 0x00,
   0x00, 0x00, 0x04, 0x51, 0x8a, 0x00, 0x00, 0x00, 0x34, 0x21, 0x91, 0x00,
   0x00, 0x00, 0x24, 0xf9, 0x9f, 0x00, 0x00, 0x00, 0x18, 0x21, 0x81, 0x00,
   0x00, 0x00, 0x00, 0x12, 0x41, 0x00, 0x00, 0x00, 0x00, 0x0a, 0x41, 0x00,
   0x00, 0x00, 0x00, 0x04, 0x21, 0x00, 0x00, 0x00, 0xfc, 0x1b, 0x19, 0x00,
   0x00, 0x00, 0x00, 0xe0, 0x07, 0x22, 0x00, 0x00, 0x00, 0x00, 0x01, 0x55,
   0x00, 0x00, 0x00, 0x00, 0x01, 0x47, 0x00, 0x00, 0x00, 0x00, 0x01, 0x25,
   0xc0, 0xff, 0x01, 0x00, 0x00, 0x75, 0x40, 0x00, 0x01, 0x00, 0x00, 0x00,
   0x40, 0x00, 0x01, 0x00, 0x00, 0x00, 0x40, 0x1c, 0x01, 0x00, 0x00, 0x00,
   0x40, 0x3e, 0x01, 0x00, 0x00, 0x00, 0x40, 0x3e, 0x01, 0x00, 0x00, 0x00,
   0x40, 0x1c, 0x01, 0x00, 0x00, 0x00, 0x40, 0x00, 0x01, 0x00, 0x00, 0x00,
   0x40, 0x00, 0x01, 0x00, 0x00, 0x00, 0xc0, 0xff, 0x01, 0x00, 0x00, 0x00,
   0xc0, 0xff, 0x01, 0x00, 0x00, 0x00, 0xc0, 0xff, 0x01, 0x00, 0x00, 0x00,
   0xc0, 0xff, 0x01, 0x00, 0x00, 0x00, 0xc0, 0xff, 0x01, 0x00, 0x00, 0x00,
   0xc0, 0xff, 0x01, 0x00, 0x00, 0x00, 0xc0, 0xff, 0x01, 0x00, 0x00, 0x00,
   0xc0, 0xff, 0x01, 0x00, 0x00, 0x00, 0xc0, 0xff, 0x01, 0x00, 0x00, 0x00,
   0x80, 0x88, 0x00, 0x00, 0x00, 0x00, 0x80, 0x88, 0x00, 0x00, 0x00, 0x00,
   0x80, 0x88, 0x00, 0x00, 0x00, 0x00, 0x80, 0x88, 0x00, 0x00, 0x00, 0x00,
   0x80, 0x88, 0x00, 0x00, 0x00, 0x00, 0x80, 0x88, 0x00, 0x00, 0x00, 0x00,
   0x80, 0x88, 0x00, 0x00, 0x00, 0x00, 0x80, 0x88, 0x00, 0x00, 0x00, 0x00,
   0x80, 0x88, 0x00, 0x00, 0x00, 0x00, 0x80, 0x88, 0x00, 0x00, 0x00, 0x00,
   0x80, 0x88, 0x00, 0x00, 0x00, 0x00, 0x22, 0x00, 0x0c, 0x00, 0x00, 0x00,
   0x35, 0x22, 0x02, 0x00, 0x00, 0x00, 0x27, 0x55, 0x1a, 0x00, 0x00, 0x00,
   0x25, 0x47, 0x12, 0x00, 0x00, 0x00, 0x75, 0x25, 0x0c, 0x00, 0x00, 0x00,
   0x00, 0x75, 0x00, 0x00, 0x00, 0x00, 0x00, 0x00, 0x00, 0x00, 0x00, 0x00,
   0x00, 0x00, 0x00, 0x00, 0x00, 0x00, 0x00, 0x00, 0x00, 0x00, 0x00, 0x00,
   0x00, 0x00, 0x00, 0x00, 0x00, 0x00, 0x00, 0x00, 0x00, 0x00, 0x00, 0x00 };
