#define trs_npn_width 48
#define trs_npn_height 64
static unsigned char trs_npn_bits[] = {
   0x00, 0x00, 0x00, 0x00, 0x00, 0x00, 0x00, 0x00, 0x00, 0x00, 0x00, 0x00,
   0x00, 0x00, 0x00, 0x00, 0x00, 0x00, 0x00, 0x00, 0x00, 0x00, 0x04, 0x06,
   0x00, 0x00, 0x00, 0x00, 0x04, 0x01, 0x00, 0x00, 0x00, 0x00, 0x04, 0x01,
   0x00, 0x00, 0x00, 0x00, 0x04, 0x01, 0x00, 0x00, 0x00, 0xe0, 0x07, 0x06,
   0x00, 0x00, 0x1c, 0x18, 0x1c, 0x00, 0x00, 0x00, 0x24, 0x04, 0x24, 0x00,
   0x00, 0x00, 0x1c, 0x42, 0x44, 0x00, 0x00, 0x00, 0x24, 0x42, 0x42, 0x00,
   0x00, 0x00, 0x1c, 0x41, 0x81, 0x00, 0x00, 0x00, 0x00, 0xc1, 0x80, 0x00,
   0x00, 0x00, 0x00, 0x41, 0x80, 0x00, 0x00, 0x00, 0xfe, 0x7f, 0x80, 0x00,
   0x00, 0x00, 0x00, 0xc1, 0x80, 0x00, 0x00, 0x00, 0x00, 0x41, 0x85, 0x00,
   0x00, 0x00, 0x00, 0x42, 0x46, 0x00, 0x00, 0x00, 0x00, 0x42, 0x47, 0x00,
   0x00, 0x00, 0x00, 0x04, 0x28, 0x00, 0x00, 0x00, 0x00, 0x18, 0x18, 0x0e,
   0x00, 0x00, 0x00, 0xe0, 0x0f, 0x01, 0x00, 0x00, 0x00, 0x00, 0x08, 0x07,
   0x00, 0x00, 0x00, 0x00, 0x08, 0x01, 0x00, 0x00, 0x00, 0x00, 0x08, 0x0e,
   0x00, 0x00, 0x00, 0x00, 0x08, 0x00, 0x00, 0x00, 0x00, 0x00, 0x00, 0x00,
   0x00, 0x00, 0x00, 0x00, 0x00, 0x00, 0x00, 0x00, 0x00, 0x00, 0x00, 0x00,
   0x00, 0x00, 0x00, 0x00, 0x00, 0x00, 0x00, 0x00, 0x00, 0x00, 0x00, 0x00,
   0x00, 0xf8, 0x03, 0x00, 0x00, 0x00, 0x00, 0xf8, 0x03, 0x00, 0x00, 0x00,
   0x00, 0xf8, 0x03, 0x00, 0x00, 0x00, 0x00, 0xf8, 0x03, 0x00, 0x00, 0x00,
   0x00, 0xf8, 0x03, 0x00, 0x00, 0x00, 0x00, 0xf8, 0x03, 0x00, 0x00, 0x00,
   0x00, 0xf8, 0x03, 0x00, 0x00, 0x00, 0x00, 0x50, 0x01, 0x00, 0x00, 0x00,
   0x00, 0x48, 0x02, 0x00, 0x00, 0x00, 0x00, 0x44, 0x04, 0x00, 0x00, 0x00,
   0x00, 0x44, 0x04, 0x00, 0x00, 0x00, 0x00, 0x44, 0x04, 0x00, 0x00, 0x00,
   0x00, 0x44, 0x04, 0x00, 0x00, 0x00, 0x00, 0x44, 0x04, 0x00, 0x00, 0x00,
   0x00, 0x44, 0x04, 0x00, 0x00, 0x00, 0x00, 0x44, 0x04, 0x00, 0x00, 0x00,
   0x00, 0x44, 0x04, 0x00, 0x00, 0x00, 0x00, 0x44, 0x04, 0x00, 0x00, 0x00,
   0x00, 0x44, 0x04, 0x00, 0x00, 0x00, 0x00, 0x44, 0x04, 0x00, 0x00, 0x00,
   0x00, 0x00, 0x00, 0x00, 0x00, 0x00, 0x00, 0x00, 0x00, 0x00, 0x00, 0x00,
   0x00, 0xee, 0x18, 0x00, 0x00, 0x00, 0x00, 0x21, 0x05, 0x00, 0x00, 0x00,
   0x00, 0xe7, 0x04, 0x00, 0x00, 0x00, 0x00, 0x21, 0x05, 0x00, 0x00, 0x00,
   0x00, 0xee, 0x18, 0x00, 0x00, 0x00, 0x00, 0x00, 0x00, 0x00, 0x00, 0x00,
   0x00, 0x00, 0x00, 0x00, 0x00, 0x00, 0x00, 0x00, 0x00, 0x00, 0x00, 0x00,
   0x00, 0x00, 0x00, 0x00, 0x00, 0x00, 0x00, 0x00, 0x00, 0x00, 0x00, 0x00 };
