#define tt_npn_width 48
#define tt_npn_height 64
static unsigned char tt_npn_bits[] = {
   0x00, 0x00, 0x00, 0x00, 0x00, 0x00, 0x00, 0x00, 0x00, 0x00, 0x00, 0x00,
   0x00, 0x00, 0x00, 0x00, 0x10, 0x07, 0x00, 0x00, 0x00, 0x00, 0x10, 0x09,
   0x00, 0x00, 0x00, 0x00, 0x10, 0x09, 0x00, 0x00, 0x00, 0xe0, 0x17, 0x09,
   0x00, 0x00, 0x00, 0x18, 0x18, 0x07, 0x00, 0x00, 0x00, 0x84, 0x30, 0x00,
   0x00, 0x00, 0x00, 0xa2, 0x5f, 0x00, 0x00, 0x00, 0x00, 0xa2, 0x40, 0x00,
   0x00, 0x00, 0x00, 0x21, 0x84, 0x00, 0x00, 0x00, 0x18, 0xa1, 0x86, 0x00,
   0x00, 0x00, 0x04, 0xa1, 0x9f, 0x00, 0x00, 0x00, 0x34, 0xa1, 0x96, 0x00,
   0x00, 0x00, 0x24, 0x21, 0x94, 0x00, 0x00, 0x00, 0x18, 0xa1, 0x90, 0x00,
   0x00, 0x00, 0x00, 0xa2, 0x5f, 0x00, 0x00, 0x00, 0xfc, 0xbf, 0x50, 0x00,
   0x00, 0x00, 0x00, 0x04, 0x30, 0x00, 0x00, 0x00, 0x00, 0x18, 0x18, 0x00,
   0x00, 0x00, 0x00, 0xe0, 0x17, 0x0e, 0x00, 0x00, 0x00, 0x00, 0x10, 0x01,
   0x00, 0x00, 0x00, 0x00, 0x10, 0x06, 0x00, 0x00, 0x00, 0x00, 0x10, 0x08,
   0xe0, 0xff, 0x00, 0x00, 0x10, 0x07, 0x20, 0x80, 0x00, 0x00, 0x00, 0x00,
   0x20, 0x80, 0x00, 0x00, 0x00, 0x00, 0x20, 0x8e, 0x00, 0x00, 0x00, 0x00,
   0x20, 0x9f, 0x00, 0x0e, 0x00, 0x00, 0x20, 0x9f, 0x00, 0x12, 0x00, 0x00,
   0x20, 0x8e, 0x00, 0x12, 0x00, 0x00, 0x20, 0x80, 0x00, 0x12, 0x00, 0x00,
   0x20, 0x80, 0x00, 0x0e, 0x00, 0x00, 0xe0, 0xff, 0x00, 0x00, 0x00, 0x00,
   0xe0, 0xff, 0x00, 0x04, 0x00, 0x00, 0xe0, 0xff, 0x00, 0x04, 0x00, 0x00,
   0xe0, 0xff, 0xe0, 0xff, 0xf0, 0x07, 0xe0, 0xff, 0xe0, 0xff, 0xf0, 0x07,
   0xe0, 0xff, 0xe0, 0xff, 0xf0, 0x07, 0xe0, 0xff, 0xe0, 0xff, 0xf0, 0x07,
   0xe0, 0xff, 0xe0, 0xff, 0xf0, 0x07, 0xe0, 0xff, 0x40, 0x40, 0xf0, 0x07,
   0x40, 0x44, 0x40, 0x40, 0xf0, 0x07, 0x40, 0x44, 0x00, 0x00, 0xa0, 0x02,
   0x40, 0x44, 0x00, 0x00, 0x90, 0x04, 0x40, 0x44, 0xc0, 0xe0, 0x90, 0x04,
   0x40, 0x44, 0x20, 0x10, 0x90, 0x04, 0x40, 0x44, 0xa0, 0x61, 0x90, 0x04,
   0x40, 0x44, 0x20, 0x81, 0x90, 0x04, 0x40, 0x44, 0xc0, 0x70, 0x90, 0x04,
   0x40, 0x44, 0x00, 0x00, 0x90, 0x04, 0x40, 0x44, 0x00, 0x00, 0x90, 0x04,
   0x40, 0x44, 0x00, 0x00, 0x00, 0x00, 0x00, 0x00, 0x00, 0x00, 0xce, 0x1c,
   0x30, 0x0e, 0x07, 0x00, 0x21, 0x24, 0x08, 0x92, 0x00, 0x00, 0xa6, 0x25,
   0x68, 0x12, 0x03, 0x00, 0x28, 0x25, 0x48, 0x12, 0x04, 0x00, 0xc7, 0x1c,
   0x30, 0x8e, 0x03, 0x00, 0x00, 0x00, 0x00, 0x00, 0x00, 0x00, 0x00, 0x00,
   0x00, 0x00, 0x00, 0x00, 0x00, 0x00, 0x00, 0x00, 0x00, 0x00, 0x00, 0x00,
   0x00, 0x00, 0x00, 0x00, 0x00, 0x00, 0x00, 0x00, 0x00, 0x00, 0x00, 0x00 };
