#define tt_pnp_width 48
#define tt_pnp_height 64
static unsigned char tt_pnp_bits[] = {
   0x00, 0x00, 0x00, 0x00, 0x00, 0x00, 0x00, 0x00, 0x00, 0x00, 0x00, 0x00,
   0x00, 0x00, 0x00, 0x00, 0x10, 0x0e, 0x00, 0x00, 0x00, 0x00, 0x10, 0x01,
   0x00, 0x00, 0x00, 0x00, 0x10, 0x06, 0x00, 0x00, 0x00, 0x00, 0x10, 0x08,
   0x00, 0x00, 0x00, 0xe0, 0x17, 0x07, 0x00, 0x00, 0x00, 0x18, 0x18, 0x00,
   0x00, 0x00, 0x00, 0x04, 0x30, 0x00, 0x00, 0x00, 0xfc, 0xbf, 0x50, 0x00,
   0x00, 0x00, 0x00, 0xa2, 0x5f, 0x00, 0x00, 0x00, 0x00, 0xa1, 0x90, 0x00,
   0x00, 0x00, 0x18, 0x21, 0x94, 0x00, 0x00, 0x00, 0x04, 0xa1, 0x96, 0x00,
   0x00, 0x00, 0x34, 0xa1, 0x9f, 0x00, 0x00, 0x00, 0x24, 0xa1, 0x86, 0x00,
   0x00, 0x00, 0x18, 0x21, 0x84, 0x00, 0x00, 0x00, 0x00, 0xa2, 0x40, 0x00,
   0x00, 0x00, 0x00, 0xa2, 0x5f, 0x00, 0x00, 0x00, 0x00, 0x84, 0x30, 0x00,
   0x00, 0x00, 0x00, 0x18, 0x18, 0x07, 0x00, 0x00, 0x00, 0xe0, 0x17, 0x09,
   0x00, 0x00, 0x00, 0x00, 0x10, 0x09, 0x00, 0x00, 0x00, 0x00, 0x10, 0x09,
   0xe0, 0xff, 0x00, 0x00, 0x10, 0x07, 0x20, 0x80, 0x00, 0x00, 0x00, 0x00,
   0x20, 0x80, 0x00, 0x00, 0x00, 0x00, 0x20, 0x8e, 0x00, 0x00, 0x00, 0x00,
   0x20, 0x9f, 0x00, 0x00, 0x00, 0x00, 0x20, 0x9f, 0x00, 0x00, 0x00, 0x00,
   0x20, 0x8e, 0x00, 0x00, 0x00, 0x00, 0x20, 0x80, 0x00, 0x00, 0x00, 0x00,
   0x20, 0x80, 0x00, 0x00, 0x00, 0x00, 0xe0, 0xff, 0x00, 0x00, 0x00, 0x00,
   0xe0, 0xff, 0x00, 0x00, 0x00, 0x00, 0xe0, 0xff, 0x00, 0x00, 0x00, 0x00,
   0xe0, 0xff, 0x00, 0x00, 0xf0, 0x07, 0xe0, 0xff, 0x00, 0x00, 0xf0, 0x07,
   0xe0, 0xff, 0x00, 0x00, 0xf0, 0x07, 0xe0, 0xff, 0x00, 0x00, 0xf0, 0x07,
   0xe0, 0xff, 0x00, 0x00, 0xf0, 0x07, 0xe0, 0xff, 0x00, 0x00, 0xf0, 0x07,
   0x40, 0x44, 0x00, 0x00, 0xf0, 0x07, 0x40, 0x44, 0x00, 0x00, 0xa0, 0x02,
   0x40, 0x44, 0x00, 0x00, 0x90, 0x04, 0x40, 0x44, 0x00, 0x00, 0x90, 0x04,
   0x40, 0x44, 0x00, 0x00, 0x90, 0x04, 0x40, 0x44, 0x00, 0x00, 0x90, 0x04,
   0x40, 0x44, 0x00, 0x00, 0x90, 0x04, 0x40, 0x44, 0x00, 0x00, 0x90, 0x04,
   0x40, 0x44, 0x00, 0x00, 0x90, 0x04, 0x40, 0x44, 0x00, 0x00, 0x90, 0x04,
   0x40, 0x44, 0x00, 0x00, 0x00, 0x00, 0x00, 0x00, 0x00, 0x00, 0xcc, 0x71,
   0x30, 0xc7, 0x01, 0x00, 0x42, 0x0a, 0x08, 0x29, 0x00, 0x00, 0x5a, 0x32,
   0x68, 0xc9, 0x00, 0x00, 0x52, 0x42, 0x48, 0x09, 0x01, 0x00, 0xcc, 0x39,
   0x30, 0xe7, 0x00, 0x00, 0x00, 0x00, 0x00, 0x00, 0x00, 0x00, 0x00, 0x00,
   0x00, 0x00, 0x00, 0x00, 0x00, 0x00, 0x00, 0x00, 0x00, 0x00, 0x00, 0x00,
   0x00, 0x00, 0x00, 0x00, 0x00, 0x00, 0x00, 0x00, 0x00, 0x00, 0x00, 0x00 };
